<svg xmlns="http://www.w3.org/2000/svg" xmlns:xlink="http://www.w3.org/1999/xlink" width="164" zoomAndPan="magnify" viewBox="0 0 123 70.499998" height="94" preserveAspectRatio="xMidYMid meet" version="1.0"><defs><g/></defs><g fill="#ffffff" fill-opacity="1"><g transform="translate(21.867648, 46.88711)"><g><path d="M 10.890625 0.375 C 8.429688 0.375 6.492188 -0.117188 5.078125 -1.109375 C 3.660156 -2.097656 2.71875 -3.484375 2.25 -5.265625 L 6.15625 -7.03125 L 6.578125 -6.953125 C 7.253906 -4.960938 8.675781 -3.96875 10.84375 -3.96875 C 12.539062 -3.96875 13.832031 -4.671875 14.71875 -6.078125 C 15.601562 -7.484375 16.046875 -9.597656 16.046875 -12.421875 L 15.6875 -12.546875 C 15.09375 -11.410156 14.316406 -10.550781 13.359375 -9.96875 C 12.410156 -9.394531 11.175781 -9.109375 9.65625 -9.109375 C 8.101562 -9.109375 6.734375 -9.453125 5.546875 -10.140625 C 4.367188 -10.828125 3.453125 -11.804688 2.796875 -13.078125 C 2.140625 -14.359375 1.8125 -15.859375 1.8125 -17.578125 C 1.8125 -19.367188 2.191406 -20.929688 2.953125 -22.265625 C 3.710938 -23.597656 4.789062 -24.625 6.1875 -25.34375 C 7.59375 -26.0625 9.226562 -26.421875 11.09375 -26.421875 C 14.3125 -26.421875 16.828125 -25.398438 18.640625 -23.359375 C 20.453125 -21.328125 21.359375 -18.046875 21.359375 -13.515625 C 21.359375 -10.410156 20.9375 -7.820312 20.09375 -5.75 C 19.257812 -3.6875 18.0625 -2.148438 16.5 -1.140625 C 14.9375 -0.128906 13.066406 0.375 10.890625 0.375 Z M 11.234375 -13.328125 C 12.566406 -13.328125 13.617188 -13.71875 14.390625 -14.5 C 15.171875 -15.28125 15.5625 -16.335938 15.5625 -17.671875 C 15.5625 -19.015625 15.175781 -20.078125 14.40625 -20.859375 C 13.644531 -21.640625 12.585938 -22.03125 11.234375 -22.03125 C 9.910156 -22.03125 8.875 -21.648438 8.125 -20.890625 C 7.375 -20.128906 7 -19.054688 7 -17.671875 C 7 -16.296875 7.375 -15.226562 8.125 -14.46875 C 8.875 -13.707031 9.910156 -13.328125 11.234375 -13.328125 Z M 11.234375 -13.328125 "/></g></g></g><g fill="#ffffff" fill-opacity="1"><g transform="translate(45.411271, 46.88711)"><g><path d="M 11.171875 0.375 C 9.097656 0.375 7.347656 0.0546875 5.921875 -0.578125 C 4.492188 -1.222656 3.414062 -2.140625 2.6875 -3.328125 C 1.96875 -4.515625 1.609375 -5.921875 1.609375 -7.546875 C 1.609375 -9.054688 1.976562 -10.363281 2.71875 -11.46875 C 3.46875 -12.570312 4.5625 -13.441406 6 -14.078125 L 6 -14.453125 C 4.976562 -15.078125 4.195312 -15.820312 3.65625 -16.6875 C 3.113281 -17.5625 2.84375 -18.578125 2.84375 -19.734375 C 2.84375 -21.054688 3.164062 -22.222656 3.8125 -23.234375 C 4.46875 -24.242188 5.421875 -25.023438 6.671875 -25.578125 C 7.921875 -26.140625 9.421875 -26.421875 11.171875 -26.421875 C 12.910156 -26.421875 14.40625 -26.140625 15.65625 -25.578125 C 16.90625 -25.023438 17.851562 -24.242188 18.5 -23.234375 C 19.15625 -22.222656 19.484375 -21.054688 19.484375 -19.734375 C 19.484375 -18.578125 19.207031 -17.566406 18.65625 -16.703125 C 18.113281 -15.835938 17.328125 -15.085938 16.296875 -14.453125 L 16.296875 -14.078125 C 17.816406 -13.472656 18.929688 -12.609375 19.640625 -11.484375 C 20.359375 -10.367188 20.71875 -9.054688 20.71875 -7.546875 C 20.71875 -5.921875 20.351562 -4.515625 19.625 -3.328125 C 18.90625 -2.140625 17.832031 -1.222656 16.40625 -0.578125 C 14.976562 0.0546875 13.234375 0.375 11.171875 0.375 Z M 11.171875 -15.90625 C 12.203125 -15.90625 13.019531 -16.191406 13.625 -16.765625 C 14.238281 -17.335938 14.546875 -18.128906 14.546875 -19.140625 C 14.546875 -20.160156 14.238281 -20.957031 13.625 -21.53125 C 13.019531 -22.113281 12.203125 -22.40625 11.171875 -22.40625 C 10.109375 -22.40625 9.273438 -22.117188 8.671875 -21.546875 C 8.066406 -20.972656 7.765625 -20.171875 7.765625 -19.140625 C 7.765625 -18.109375 8.066406 -17.3125 8.671875 -16.75 C 9.273438 -16.1875 10.109375 -15.90625 11.171875 -15.90625 Z M 11.171875 -4.015625 C 12.554688 -4.015625 13.628906 -4.359375 14.390625 -5.046875 C 15.148438 -5.742188 15.53125 -6.710938 15.53125 -7.953125 C 15.53125 -9.179688 15.148438 -10.140625 14.390625 -10.828125 C 13.628906 -11.523438 12.554688 -11.875 11.171875 -11.875 C 9.765625 -11.875 8.679688 -11.523438 7.921875 -10.828125 C 7.160156 -10.140625 6.78125 -9.179688 6.78125 -7.953125 C 6.78125 -6.710938 7.160156 -5.742188 7.921875 -5.046875 C 8.679688 -4.359375 9.765625 -4.015625 11.171875 -4.015625 Z M 11.171875 -4.015625 "/></g></g></g><g fill="#ffffff" fill-opacity="1"><g transform="translate(67.743875, 46.88711)"><g/></g></g><g fill="#ffffff" fill-opacity="1"><g transform="translate(76.345667, 46.88711)"><g><path d="M 7.46875 -11.90625 C 5.550781 -11.90625 4.039062 -12.503906 2.9375 -13.703125 C 1.84375 -14.898438 1.296875 -16.722656 1.296875 -19.171875 C 1.296875 -21.617188 1.84375 -23.4375 2.9375 -24.625 C 4.039062 -25.820312 5.550781 -26.421875 7.46875 -26.421875 C 9.363281 -26.421875 10.859375 -25.820312 11.953125 -24.625 C 13.046875 -23.425781 13.59375 -21.609375 13.59375 -19.171875 C 13.59375 -16.722656 13.046875 -14.898438 11.953125 -13.703125 C 10.859375 -12.503906 9.363281 -11.90625 7.46875 -11.90625 Z M 9.265625 0 L 4.921875 0 L 4.84375 -0.375 L 22.265625 -26.046875 L 26.609375 -26.046875 L 26.6875 -25.671875 Z M 7.46875 -15.28125 C 8.1875 -15.28125 8.722656 -15.566406 9.078125 -16.140625 C 9.441406 -16.710938 9.625 -17.722656 9.625 -19.171875 C 9.625 -20.617188 9.441406 -21.625 9.078125 -22.1875 C 8.722656 -22.757812 8.1875 -23.046875 7.46875 -23.046875 C 6.96875 -23.046875 6.554688 -22.929688 6.234375 -22.703125 C 5.910156 -22.472656 5.664062 -22.070312 5.5 -21.5 C 5.332031 -20.925781 5.25 -20.148438 5.25 -19.171875 C 5.25 -18.171875 5.332031 -17.390625 5.5 -16.828125 C 5.664062 -16.265625 5.90625 -15.863281 6.21875 -15.625 C 6.539062 -15.394531 6.957031 -15.28125 7.46875 -15.28125 Z M 24.15625 0.375 C 22.238281 0.375 20.734375 -0.21875 19.640625 -1.40625 C 18.546875 -2.601562 18 -4.425781 18 -6.875 C 18 -9.320312 18.546875 -11.144531 19.640625 -12.34375 C 20.734375 -13.539062 22.238281 -14.140625 24.15625 -14.140625 C 26.050781 -14.140625 27.546875 -13.539062 28.640625 -12.34375 C 29.734375 -11.144531 30.28125 -9.320312 30.28125 -6.875 C 30.28125 -4.4375 29.734375 -2.617188 28.640625 -1.421875 C 27.546875 -0.222656 26.050781 0.375 24.15625 0.375 Z M 24.15625 -3.015625 C 24.644531 -3.015625 25.046875 -3.128906 25.359375 -3.359375 C 25.671875 -3.585938 25.90625 -3.984375 26.0625 -4.546875 C 26.226562 -5.109375 26.3125 -5.882812 26.3125 -6.875 C 26.3125 -7.875 26.226562 -8.65625 26.0625 -9.21875 C 25.90625 -9.78125 25.671875 -10.175781 25.359375 -10.40625 C 25.046875 -10.644531 24.644531 -10.765625 24.15625 -10.765625 C 23.65625 -10.765625 23.25 -10.644531 22.9375 -10.40625 C 22.625 -10.175781 22.382812 -9.78125 22.21875 -9.21875 C 22.050781 -8.65625 21.96875 -7.875 21.96875 -6.875 C 21.96875 -5.882812 22.050781 -5.109375 22.21875 -4.546875 C 22.382812 -3.984375 22.625 -3.585938 22.9375 -3.359375 C 23.25 -3.128906 23.65625 -3.015625 24.15625 -3.015625 Z M 24.15625 -3.015625 "/></g></g></g></svg>