<svg xmlns="http://www.w3.org/2000/svg" xmlns:xlink="http://www.w3.org/1999/xlink" width="164" zoomAndPan="magnify" viewBox="0 0 123 70.499998" height="94" preserveAspectRatio="xMidYMid meet" version="1.0"><defs><clipPath id="5b8c263574"><path d="M 121.035156 68 L 122 68 L 122 69.476562 L 121.035156 69.476562 Z M 121.035156 68 " clip-rule="nonzero"/></clipPath><clipPath id="f0ec59bb0f"><path d="M 121.035156 68 L 122.523438 68 L 122.523438 69.476562 L 121.035156 69.476562 Z M 121.035156 68 " clip-rule="nonzero"/></clipPath><clipPath id="e0ad189439"><path d="M 122 68 L 122.523438 68 L 122.523438 69.476562 L 122 69.476562 Z M 122 68 " clip-rule="nonzero"/></clipPath><clipPath id="213ec80a5d"><path d="M 121.035156 67.984375 L 122.523438 67.984375 L 122.523438 69.476562 L 121.035156 69.476562 Z M 121.035156 67.984375 " clip-rule="nonzero"/></clipPath><clipPath id="a49e7314de"><path d="M 20.71875 0.183594 L 104 0.183594 L 104 70.003906 L 20.71875 70.003906 Z M 20.71875 0.183594 " clip-rule="nonzero"/></clipPath><clipPath id="cb8dfc4c60"><path d="M 89 22 L 113.808594 22 L 113.808594 47 L 89 47 Z M 89 22 " clip-rule="nonzero"/></clipPath><clipPath id="98e092e458"><path d="M 20.71875 29 L 87 29 L 87 52 L 20.71875 52 Z M 20.71875 29 " clip-rule="nonzero"/></clipPath></defs><g clip-path="url(#5b8c263574)"><path fill="#100f0d" d="M 121.328125 68.90625 C 121.324219 68.90625 121.324219 68.90625 121.320312 68.90625 L 121.195312 69.054688 L 121.195312 69.449219 C 121.195312 69.464844 121.203125 69.472656 121.210938 69.472656 L 121.355469 69.472656 C 121.367188 69.472656 121.375 69.464844 121.375 69.449219 L 121.375 68.953125 L 121.332031 68.90625 C 121.328125 68.90625 121.328125 68.90625 121.328125 68.90625 " fill-opacity="1" fill-rule="nonzero"/><path fill="#100f0d" d="M 121.453125 69.011719 C 121.445312 69.011719 121.4375 69.007812 121.429688 69.003906 L 121.429688 69.449219 C 121.429688 69.464844 121.4375 69.472656 121.449219 69.472656 L 121.59375 69.472656 C 121.605469 69.472656 121.613281 69.464844 121.613281 69.449219 L 121.613281 68.851562 L 121.492188 68.988281 C 121.484375 69.003906 121.46875 69.011719 121.453125 69.011719 " fill-opacity="1" fill-rule="nonzero"/><path fill="#100f0d" d="M 121.796875 68.636719 C 121.796875 68.636719 121.796875 68.636719 121.792969 68.640625 L 121.667969 68.785156 L 121.667969 69.449219 C 121.667969 69.464844 121.675781 69.472656 121.6875 69.472656 L 121.828125 69.472656 C 121.839844 69.472656 121.847656 69.464844 121.847656 69.449219 L 121.847656 68.691406 L 121.804688 68.640625 C 121.800781 68.636719 121.800781 68.636719 121.796875 68.636719 " fill-opacity="1" fill-rule="nonzero"/></g><g clip-path="url(#f0ec59bb0f)"><path fill="#100f0d" d="M 121.910156 68.738281 C 121.910156 68.738281 121.90625 68.738281 121.902344 68.738281 L 121.902344 69.449219 C 121.902344 69.464844 121.914062 69.472656 121.921875 69.472656 L 122.066406 69.472656 C 122.078125 69.472656 122.085938 69.464844 122.085938 69.449219 L 122.085938 68.574219 L 121.953125 68.71875 C 121.941406 68.730469 121.925781 68.738281 121.910156 68.738281 " fill-opacity="1" fill-rule="nonzero"/></g><g clip-path="url(#e0ad189439)"><path fill="#100f0d" d="M 122.140625 69.449219 C 122.140625 69.464844 122.148438 69.472656 122.160156 69.472656 L 122.304688 69.472656 C 122.316406 69.472656 122.324219 69.464844 122.324219 69.449219 L 122.324219 68.316406 L 122.140625 68.515625 L 122.140625 69.449219 " fill-opacity="1" fill-rule="nonzero"/></g><g clip-path="url(#213ec80a5d)"><path fill="#100f0d" d="M 122.480469 67.992188 L 122.3125 68.015625 C 122.285156 68.019531 122.273438 68.058594 122.292969 68.085938 L 122.3125 68.113281 C 122.324219 68.132812 122.320312 68.15625 122.308594 68.171875 L 121.9375 68.578125 C 121.921875 68.589844 121.902344 68.589844 121.890625 68.578125 L 121.820312 68.496094 C 121.808594 68.480469 121.789062 68.480469 121.773438 68.496094 L 121.472656 68.851562 C 121.460938 68.863281 121.441406 68.863281 121.425781 68.851562 L 121.347656 68.765625 C 121.332031 68.753906 121.3125 68.753906 121.300781 68.765625 L 121.050781 69.058594 C 121.035156 69.074219 121.035156 69.101562 121.046875 69.117188 C 121.0625 69.136719 121.082031 69.136719 121.097656 69.121094 L 121.304688 68.882812 C 121.316406 68.867188 121.335938 68.867188 121.347656 68.878906 L 121.429688 68.964844 C 121.441406 68.980469 121.460938 68.980469 121.476562 68.964844 L 121.773438 68.613281 C 121.789062 68.597656 121.808594 68.597656 121.820312 68.613281 L 121.886719 68.691406 C 121.902344 68.707031 121.921875 68.707031 121.933594 68.691406 L 122.351562 68.238281 C 122.367188 68.222656 122.386719 68.226562 122.402344 68.242188 L 122.414062 68.261719 C 122.433594 68.289062 122.464844 68.28125 122.472656 68.246094 L 122.519531 68.042969 C 122.523438 68.015625 122.503906 67.988281 122.480469 67.992188 " fill-opacity="1" fill-rule="nonzero"/></g><g clip-path="url(#a49e7314de)"><path fill="#ffffff" d="M 20.71875 7.578125 C 20.71875 3.578125 23.960938 0.335938 27.960938 0.335938 L 96.742188 0.335938 C 100.742188 0.335938 103.984375 3.578125 103.984375 7.578125 L 103.984375 25.316406 L 99.328125 25.316406 L 99.328125 7.578125 C 99.328125 6.148438 98.171875 4.992188 96.742188 4.992188 L 27.960938 4.992188 C 26.53125 4.992188 25.375 6.148438 25.375 7.578125 L 25.375 62.789062 C 25.375 64.214844 26.53125 65.375 27.960938 65.375 L 96.742188 65.375 C 98.171875 65.375 99.328125 64.214844 99.328125 62.789062 L 99.328125 43.9375 L 103.984375 43.9375 L 103.984375 62.789062 C 103.984375 66.789062 100.742188 70.027344 96.742188 70.027344 L 27.960938 70.027344 C 23.960938 70.027344 20.71875 66.789062 20.71875 62.789062 Z M 20.71875 7.578125 " fill-opacity="1" fill-rule="evenodd"/></g><path fill="#ffffff" d="M 28.441406 10.03125 C 28.441406 8.746094 29.480469 7.703125 30.765625 7.703125 L 32.683594 7.703125 C 33.96875 7.703125 35.011719 8.746094 35.011719 10.03125 C 35.011719 11.316406 33.96875 12.359375 32.683594 12.359375 L 30.765625 12.359375 C 29.480469 12.359375 28.441406 11.316406 28.441406 10.03125 Z M 28.441406 10.03125 " fill-opacity="1" fill-rule="evenodd"/><path fill="#ffffff" d="M 36.160156 10.03125 C 36.160156 8.746094 37.203125 7.703125 38.488281 7.703125 L 40.40625 7.703125 C 41.691406 7.703125 42.734375 8.746094 42.734375 10.03125 C 42.734375 11.316406 41.691406 12.359375 40.40625 12.359375 L 38.488281 12.359375 C 37.203125 12.359375 36.160156 11.316406 36.160156 10.03125 Z M 36.160156 10.03125 " fill-opacity="1" fill-rule="evenodd"/><path fill="#ffffff" d="M 43.832031 10.03125 C 43.832031 8.746094 44.875 7.703125 46.160156 7.703125 L 48.078125 7.703125 C 49.363281 7.703125 50.40625 8.746094 50.40625 10.03125 C 50.40625 11.316406 49.363281 12.359375 48.078125 12.359375 L 46.160156 12.359375 C 44.875 12.359375 43.832031 11.316406 43.832031 10.03125 Z M 43.832031 10.03125 " fill-opacity="1" fill-rule="evenodd"/><path fill="#ffffff" d="M 23.046875 15.074219 L 99.945312 15.074219 L 99.945312 19.726562 L 23.046875 19.726562 Z M 23.046875 15.074219 " fill-opacity="1" fill-rule="evenodd"/><g clip-path="url(#cb8dfc4c60)"><path fill="#ffffff" d="M 101.65625 27.097656 C 97.515625 27.097656 94.15625 30.457031 94.15625 34.597656 C 94.15625 38.738281 97.515625 42.097656 101.65625 42.097656 C 105.796875 42.097656 109.15625 38.738281 109.15625 34.597656 C 109.15625 30.457031 105.796875 27.097656 101.65625 27.097656 Z M 89.503906 34.597656 C 89.503906 27.886719 94.941406 22.445312 101.65625 22.445312 C 108.367188 22.445312 113.808594 27.886719 113.808594 34.597656 C 113.808594 41.308594 108.367188 46.75 101.65625 46.75 C 94.941406 46.75 89.503906 41.308594 89.503906 34.597656 Z M 89.503906 34.597656 " fill-opacity="1" fill-rule="evenodd"/></g><g clip-path="url(#98e092e458)"><path fill="#ffffff" d="M 20.71875 32.140625 C 20.71875 30.855469 21.761719 29.8125 23.046875 29.8125 C 24.371094 29.8125 25.660156 29.839844 26.910156 29.894531 C 28.191406 29.949219 29.1875 31.035156 29.132812 32.320312 C 29.078125 33.605469 27.992188 34.601562 26.707031 34.542969 C 25.527344 34.492188 24.308594 34.46875 23.046875 34.46875 C 21.761719 34.46875 20.71875 33.425781 20.71875 32.140625 Z M 31.964844 32.570312 C 32.152344 31.300781 33.332031 30.417969 34.605469 30.605469 C 37.375 31.007812 39.914062 31.554688 42.238281 32.207031 C 43.476562 32.554688 44.195312 33.839844 43.847656 35.078125 C 43.5 36.316406 42.214844 37.035156 40.976562 36.6875 C 38.855469 36.089844 36.515625 35.585938 33.933594 35.210938 C 32.660156 35.023438 31.78125 33.84375 31.964844 32.570312 Z M 84.460938 36.925781 C 83.324219 36.925781 82.257812 36.996094 81.253906 37.128906 C 79.980469 37.300781 78.808594 36.402344 78.640625 35.128906 C 78.46875 33.855469 79.367188 32.683594 80.640625 32.515625 C 81.855469 32.355469 83.125 32.269531 84.460938 32.269531 C 85.746094 32.269531 86.785156 33.3125 86.785156 34.597656 C 86.785156 35.882812 85.746094 36.925781 84.460938 36.925781 Z M 76.316406 35.789062 C 76.867188 36.949219 76.375 38.339844 75.214844 38.890625 C 73.1875 39.855469 71.484375 41.101562 70.054688 42.464844 C 69.125 43.351562 67.652344 43.316406 66.765625 42.386719 C 65.878906 41.453125 65.914062 39.980469 66.84375 39.09375 C 68.585938 37.4375 70.683594 35.890625 73.214844 34.6875 C 74.375 34.136719 75.761719 34.628906 76.316406 35.789062 Z M 46.527344 36.050781 C 47.074219 34.886719 48.460938 34.390625 49.625 34.9375 C 52.308594 36.203125 54.566406 37.609375 56.457031 39.054688 C 57.480469 39.832031 57.675781 41.292969 56.894531 42.316406 C 56.117188 43.335938 54.65625 43.535156 53.632812 42.753906 C 52.003906 41.507812 50.027344 40.273438 47.640625 39.148438 C 46.476562 38.601562 45.980469 37.214844 46.527344 36.050781 Z M 58.953125 44.316406 C 59.976562 43.539062 61.4375 43.742188 62.214844 44.765625 C 62.222656 44.777344 62.234375 44.792969 62.242188 44.804688 C 62.96875 43.898438 64.273438 43.65625 65.285156 44.28125 C 66.375 44.960938 66.710938 46.394531 66.035156 47.488281 C 65.382812 48.535156 64.859375 49.523438 64.433594 50.378906 C 64.039062 51.164062 63.230469 51.664062 62.351562 51.664062 C 61.46875 51.664062 60.664062 51.164062 60.269531 50.378906 C 59.898438 49.636719 59.332031 48.671875 58.503906 47.578125 C 57.726562 46.550781 57.929688 45.09375 58.953125 44.316406 Z M 58.953125 44.316406 " fill-opacity="1" fill-rule="evenodd"/></g></svg>