<svg xmlns="http://www.w3.org/2000/svg" xmlns:xlink="http://www.w3.org/1999/xlink" width="164" zoomAndPan="magnify" viewBox="0 0 123 70.499998" height="94" preserveAspectRatio="xMidYMid meet" version="1.0"><defs><g/></defs><g fill="#ffffff" fill-opacity="1"><g transform="translate(1.278945, 48.962569)"><g><path d="M 15.21875 0.515625 C 11.78125 0.515625 9.070312 -0.175781 7.09375 -1.5625 C 5.125 -2.945312 3.804688 -4.882812 3.140625 -7.375 L 8.625 -9.84375 L 9.1875 -9.71875 C 10.132812 -6.945312 12.128906 -5.5625 15.171875 -5.5625 C 17.546875 -5.5625 19.351562 -6.546875 20.59375 -8.515625 C 21.832031 -10.484375 22.453125 -13.4375 22.453125 -17.375 L 21.953125 -17.546875 C 21.117188 -15.960938 20.03125 -14.765625 18.6875 -13.953125 C 17.351562 -13.140625 15.625 -12.734375 13.5 -12.734375 C 11.320312 -12.734375 9.40625 -13.210938 7.75 -14.171875 C 6.101562 -15.140625 4.820312 -16.515625 3.90625 -18.296875 C 3 -20.085938 2.546875 -22.1875 2.546875 -24.59375 C 2.546875 -27.101562 3.078125 -29.285156 4.140625 -31.140625 C 5.203125 -33.003906 6.710938 -34.4375 8.671875 -35.4375 C 10.628906 -36.445312 12.914062 -36.953125 15.53125 -36.953125 C 20.03125 -36.953125 23.546875 -35.523438 26.078125 -32.671875 C 28.609375 -29.828125 29.875 -25.238281 29.875 -18.90625 C 29.875 -14.5625 29.285156 -10.941406 28.109375 -8.046875 C 26.941406 -5.160156 25.265625 -3.007812 23.078125 -1.59375 C 20.898438 -0.1875 18.28125 0.515625 15.21875 0.515625 Z M 15.71875 -18.640625 C 17.582031 -18.640625 19.054688 -19.1875 20.140625 -20.28125 C 21.234375 -21.375 21.78125 -22.851562 21.78125 -24.71875 C 21.78125 -26.59375 21.242188 -28.078125 20.171875 -29.171875 C 19.097656 -30.273438 17.613281 -30.828125 15.71875 -30.828125 C 13.863281 -30.828125 12.410156 -30.296875 11.359375 -29.234375 C 10.316406 -28.171875 9.796875 -26.664062 9.796875 -24.71875 C 9.796875 -22.789062 10.316406 -21.296875 11.359375 -20.234375 C 12.410156 -19.171875 13.863281 -18.640625 15.71875 -18.640625 Z M 15.71875 -18.640625 "/></g></g></g><g fill="#ffffff" fill-opacity="1"><g transform="translate(34.204297, 48.962569)"><g><path d="M 15.625 0.515625 C 12.726562 0.515625 10.28125 0.0664062 8.28125 -0.828125 C 6.28125 -1.722656 4.773438 -3 3.765625 -4.65625 C 2.753906 -6.320312 2.25 -8.289062 2.25 -10.5625 C 2.25 -12.675781 2.769531 -14.503906 3.8125 -16.046875 C 4.851562 -17.585938 6.378906 -18.800781 8.390625 -19.6875 L 8.390625 -20.203125 C 6.960938 -21.085938 5.867188 -22.132812 5.109375 -23.34375 C 4.359375 -24.5625 3.984375 -25.984375 3.984375 -27.609375 C 3.984375 -29.453125 4.4375 -31.078125 5.34375 -32.484375 C 6.25 -33.898438 7.578125 -35 9.328125 -35.78125 C 11.078125 -36.5625 13.175781 -36.953125 15.625 -36.953125 C 18.0625 -36.953125 20.148438 -36.5625 21.890625 -35.78125 C 23.640625 -35 24.972656 -33.898438 25.890625 -32.484375 C 26.804688 -31.078125 27.265625 -29.453125 27.265625 -27.609375 C 27.265625 -25.984375 26.878906 -24.566406 26.109375 -23.359375 C 25.347656 -22.148438 24.242188 -21.097656 22.796875 -20.203125 L 22.796875 -19.6875 C 24.921875 -18.84375 26.484375 -17.640625 27.484375 -16.078125 C 28.484375 -14.515625 28.984375 -12.675781 28.984375 -10.5625 C 28.984375 -8.289062 28.472656 -6.320312 27.453125 -4.65625 C 26.441406 -3 24.9375 -1.722656 22.9375 -0.828125 C 20.945312 0.0664062 18.507812 0.515625 15.625 0.515625 Z M 15.625 -22.25 C 17.070312 -22.25 18.222656 -22.644531 19.078125 -23.4375 C 19.929688 -24.238281 20.359375 -25.347656 20.359375 -26.765625 C 20.359375 -28.191406 19.929688 -29.3125 19.078125 -30.125 C 18.222656 -30.9375 17.070312 -31.34375 15.625 -31.34375 C 14.144531 -31.34375 12.976562 -30.9375 12.125 -30.125 C 11.28125 -29.320312 10.859375 -28.203125 10.859375 -26.765625 C 10.859375 -25.335938 11.28125 -24.226562 12.125 -23.4375 C 12.976562 -22.644531 14.144531 -22.25 15.625 -22.25 Z M 15.625 -5.609375 C 17.5625 -5.609375 19.0625 -6.09375 20.125 -7.0625 C 21.195312 -8.03125 21.734375 -9.378906 21.734375 -11.109375 C 21.734375 -12.835938 21.195312 -14.1875 20.125 -15.15625 C 19.0625 -16.132812 17.5625 -16.625 15.625 -16.625 C 13.664062 -16.625 12.15625 -16.132812 11.09375 -15.15625 C 10.03125 -14.1875 9.5 -12.835938 9.5 -11.109375 C 9.5 -9.378906 10.03125 -8.03125 11.09375 -7.0625 C 12.15625 -6.09375 13.664062 -5.609375 15.625 -5.609375 Z M 15.625 -5.609375 "/></g></g></g><g fill="#ffffff" fill-opacity="1"><g transform="translate(65.43606, 48.962569)"><g/></g></g><g fill="#ffffff" fill-opacity="1"><g transform="translate(77.465519, 48.962569)"><g><path d="M 10.4375 -16.640625 C 7.757812 -16.640625 5.648438 -17.476562 4.109375 -19.15625 C 2.578125 -20.832031 1.8125 -23.382812 1.8125 -26.8125 C 1.8125 -30.226562 2.578125 -32.769531 4.109375 -34.4375 C 5.648438 -36.113281 7.757812 -36.953125 10.4375 -36.953125 C 13.09375 -36.953125 15.1875 -36.113281 16.71875 -34.4375 C 18.25 -32.757812 19.015625 -30.21875 19.015625 -26.8125 C 19.015625 -23.382812 18.25 -20.832031 16.71875 -19.15625 C 15.1875 -17.476562 13.09375 -16.640625 10.4375 -16.640625 Z M 12.953125 0 L 6.875 0 L 6.78125 -0.515625 L 31.140625 -36.421875 L 37.234375 -36.421875 L 37.328125 -35.90625 Z M 10.4375 -21.375 C 11.445312 -21.375 12.203125 -21.769531 12.703125 -22.5625 C 13.203125 -23.363281 13.453125 -24.78125 13.453125 -26.8125 C 13.453125 -28.832031 13.203125 -30.242188 12.703125 -31.046875 C 12.203125 -31.847656 11.445312 -32.25 10.4375 -32.25 C 9.738281 -32.25 9.164062 -32.082031 8.71875 -31.75 C 8.269531 -31.425781 7.925781 -30.863281 7.6875 -30.0625 C 7.457031 -29.269531 7.34375 -28.1875 7.34375 -26.8125 C 7.34375 -25.414062 7.457031 -24.320312 7.6875 -23.53125 C 7.925781 -22.738281 8.265625 -22.179688 8.703125 -21.859375 C 9.148438 -21.535156 9.726562 -21.375 10.4375 -21.375 Z M 33.78125 0.515625 C 31.113281 0.515625 29.007812 -0.316406 27.46875 -1.984375 C 25.9375 -3.648438 25.171875 -6.195312 25.171875 -9.625 C 25.171875 -13.039062 25.9375 -15.585938 27.46875 -17.265625 C 29.007812 -18.941406 31.113281 -19.78125 33.78125 -19.78125 C 36.445312 -19.78125 38.539062 -18.941406 40.0625 -17.265625 C 41.59375 -15.585938 42.359375 -13.039062 42.359375 -9.625 C 42.359375 -6.21875 41.59375 -3.675781 40.0625 -2 C 38.539062 -0.320312 36.445312 0.515625 33.78125 0.515625 Z M 33.78125 -4.21875 C 34.46875 -4.21875 35.03125 -4.378906 35.46875 -4.703125 C 35.90625 -5.023438 36.234375 -5.578125 36.453125 -6.359375 C 36.679688 -7.148438 36.796875 -8.238281 36.796875 -9.625 C 36.796875 -11.019531 36.679688 -12.109375 36.453125 -12.890625 C 36.234375 -13.679688 35.90625 -14.238281 35.46875 -14.5625 C 35.03125 -14.882812 34.46875 -15.046875 33.78125 -15.046875 C 33.082031 -15.046875 32.515625 -14.882812 32.078125 -14.5625 C 31.640625 -14.238281 31.300781 -13.679688 31.0625 -12.890625 C 30.832031 -12.109375 30.71875 -11.019531 30.71875 -9.625 C 30.71875 -8.238281 30.832031 -7.148438 31.0625 -6.359375 C 31.300781 -5.578125 31.640625 -5.023438 32.078125 -4.703125 C 32.515625 -4.378906 33.082031 -4.21875 33.78125 -4.21875 Z M 33.78125 -4.21875 "/></g></g></g></svg>