<svg xmlns="http://www.w3.org/2000/svg" xmlns:xlink="http://www.w3.org/1999/xlink" width="1440" zoomAndPan="magnify" viewBox="0 0 1080 296.250004" height="395" preserveAspectRatio="xMidYMid meet" version="1.0"><defs><clipPath id="a04742ff32"><path d="M 1.363281 0 L 1078.636719 0 L 1078.636719 295.5 L 1.363281 295.5 Z M 1.363281 0 " clip-rule="nonzero"/></clipPath><clipPath id="32e0853f96"><path d="M 1.363281 0.300781 L 1078.636719 0.300781 L 1078.636719 253 L 1.363281 253 Z M 1.363281 0.300781 " clip-rule="nonzero"/></clipPath><clipPath id="72f16a4a05"><path d="M 1.363281 12 L 1078.636719 12 L 1078.636719 265 L 1.363281 265 Z M 1.363281 12 " clip-rule="nonzero"/></clipPath><clipPath id="8112bf570b"><path d="M 1.363281 23 L 1078.636719 23 L 1078.636719 277 L 1.363281 277 Z M 1.363281 23 " clip-rule="nonzero"/></clipPath><clipPath id="ce444e5583"><path d="M 1.363281 35 L 1078.636719 35 L 1078.636719 289 L 1.363281 289 Z M 1.363281 35 " clip-rule="nonzero"/></clipPath><clipPath id="d046b67753"><path d="M 1.363281 45 L 1078.636719 45 L 1078.636719 295.5 L 1.363281 295.5 Z M 1.363281 45 " clip-rule="nonzero"/></clipPath></defs><g clip-path="url(#a04742ff32)"><path fill="#ffffff" d="M 1.363281 0 L 1078.636719 0 L 1078.636719 295.5 L 1.363281 295.5 Z M 1.363281 0 " fill-opacity="1" fill-rule="nonzero"/><path fill="#ffffff" d="M 1.363281 0 L 1078.636719 0 L 1078.636719 295.5 L 1.363281 295.5 Z M 1.363281 0 " fill-opacity="1" fill-rule="nonzero"/></g><g clip-path="url(#32e0853f96)"><path fill="#232222" d="M -0.945312 171.597656 C -3.6875 173.488281 -4.375 177.246094 -2.484375 179.988281 C -0.59375 182.730469 3.164062 183.421875 5.90625 181.53125 Z M 243.777344 51.390625 L 245.589844 57.144531 Z M 507.699219 20.660156 L 501.796875 21.921875 Z M 367.445312 145.832031 L 364.054688 140.839844 Z M 554.449219 126.796875 L 552.21875 121.191406 Z M 892.265625 77.027344 L 892.914062 71.03125 Z M 5.90625 181.53125 C 49.511719 151.457031 158.398438 84.617188 245.589844 57.144531 L 241.964844 45.636719 C 153.011719 73.664062 42.921875 141.347656 -0.945312 171.597656 Z M 245.589844 57.144531 C 300.417969 39.871094 364.335938 24.183594 415.285156 16.847656 C 440.816406 13.171875 462.738281 11.644531 478.527344 12.9375 C 486.457031 13.585938 492.390625 14.914062 496.359375 16.742188 C 500.277344 18.542969 501.476562 20.414062 501.796875 21.921875 L 513.597656 19.394531 C 512.1875 12.808594 507.28125 8.484375 501.40625 5.78125 C 495.585938 3.101562 488.046875 1.609375 479.511719 0.910156 C 462.367188 -0.488281 439.386719 1.1875 413.566406 4.90625 C 361.804688 12.359375 297.230469 28.226562 241.964844 45.636719 Z M 501.796875 21.921875 C 504.503906 34.558594 502.464844 44.425781 497 53.164062 C 491.355469 62.1875 481.816406 70.402344 468.757812 78.984375 C 455.710938 87.550781 439.832031 96.066406 421.851562 106.019531 C 403.980469 115.914062 384.273438 127.109375 364.054688 140.839844 L 370.832031 150.820312 C 390.578125 137.410156 409.894531 126.429688 427.695312 116.574219 C 445.394531 106.773438 461.84375 97.957031 475.378906 89.066406 C 488.902344 80.183594 500.191406 70.8125 507.226562 59.5625 C 514.4375 48.03125 516.921875 34.941406 513.597656 19.394531 Z M 364.054688 140.839844 C 337.839844 158.648438 311.070312 184.582031 299.410156 206.683594 C 293.730469 217.453125 290.574219 229.371094 295.988281 238.976562 C 301.496094 248.753906 313.988281 252.90625 331.25 252.90625 L 331.25 240.84375 C 314.84375 240.84375 308.578125 236.746094 306.5 233.054688 C 304.324219 229.195312 304.75 222.421875 310.082031 212.3125 C 320.449219 192.660156 345.441406 168.070312 370.832031 150.820312 Z M 331.25 252.90625 C 374.929688 252.90625 400.847656 234.128906 430.78125 210.210938 C 460.585938 186.394531 495.019531 156.917969 556.679688 132.402344 L 552.21875 121.191406 C 488.703125 146.445312 453.011719 177.003906 423.25 200.785156 C 393.609375 224.464844 370.515625 240.84375 331.25 240.84375 Z M 556.679688 132.402344 C 628.511719 103.839844 754.199219 68.089844 891.617188 83.027344 L 892.914062 71.03125 C 752.839844 55.804688 625.078125 92.222656 552.21875 121.191406 Z M 891.617188 83.027344 C 1001.957031 95.019531 1059.574219 117.960938 1089.089844 132.226562 L 1094.335938 121.363281 C 1063.527344 106.472656 1004.566406 83.167969 892.914062 71.03125 Z M 891.617188 83.027344 " fill-opacity="1" fill-rule="nonzero"/></g><g clip-path="url(#72f16a4a05)"><path fill="#d9d9d9" d="M -0.945312 183.542969 C -3.6875 185.433594 -4.375 189.191406 -2.484375 191.933594 C -0.59375 194.675781 3.164062 195.367188 5.90625 193.472656 Z M 243.777344 63.335938 L 245.589844 69.089844 Z M 507.699219 32.601562 L 501.796875 33.867188 Z M 367.445312 157.777344 L 364.054688 152.785156 Z M 554.449219 138.742188 L 552.21875 133.136719 Z M 892.265625 88.972656 L 892.914062 82.976562 Z M 5.90625 193.472656 C 49.511719 163.402344 158.398438 96.558594 245.589844 69.089844 L 241.964844 57.582031 C 153.011719 85.609375 42.921875 153.292969 -0.945312 183.542969 Z M 245.589844 69.089844 C 300.417969 51.816406 364.335938 36.128906 415.285156 28.792969 C 440.816406 25.113281 462.738281 23.589844 478.527344 24.878906 C 486.457031 25.527344 492.390625 26.855469 496.359375 28.683594 C 500.277344 30.488281 501.476562 32.359375 501.796875 33.867188 L 513.597656 31.339844 C 512.1875 24.753906 507.28125 20.429688 501.40625 17.726562 C 495.585938 15.046875 488.046875 13.554688 479.511719 12.855469 C 462.367188 11.453125 439.386719 13.132812 413.566406 16.851562 C 361.804688 24.300781 297.230469 40.167969 241.964844 57.582031 Z M 501.796875 33.867188 C 504.503906 46.503906 502.464844 56.367188 497 65.109375 C 491.355469 74.128906 481.816406 82.347656 468.757812 90.925781 C 455.710938 99.496094 439.832031 108.011719 421.851562 117.960938 C 403.980469 127.855469 384.273438 139.054688 364.054688 152.785156 L 370.832031 162.765625 C 390.578125 149.355469 409.894531 138.375 427.695312 128.519531 C 445.394531 118.71875 461.84375 109.902344 475.378906 101.011719 C 488.902344 92.128906 500.191406 82.757812 507.226562 71.507812 C 514.4375 59.976562 516.921875 46.886719 513.597656 31.339844 Z M 364.054688 152.785156 C 337.839844 170.589844 311.070312 196.523438 299.410156 218.628906 C 293.730469 229.398438 290.574219 241.316406 295.988281 250.921875 C 301.496094 260.699219 313.988281 264.851562 331.25 264.851562 L 331.25 252.785156 C 314.84375 252.785156 308.578125 248.691406 306.5 245 C 304.324219 241.140625 304.75 234.367188 310.082031 224.257812 C 320.449219 204.601562 345.441406 180.015625 370.832031 162.765625 Z M 331.25 264.851562 C 374.929688 264.851562 400.847656 246.070312 430.78125 222.15625 C 460.585938 198.339844 495.019531 168.859375 556.679688 144.347656 L 552.21875 133.136719 C 488.703125 158.390625 453.011719 188.949219 423.25 212.730469 C 393.609375 236.410156 370.515625 252.785156 331.25 252.785156 Z M 556.679688 144.347656 C 628.511719 115.785156 754.199219 80.035156 891.617188 94.972656 L 892.914062 82.976562 C 752.839844 67.75 625.078125 104.167969 552.21875 133.136719 Z M 891.617188 94.972656 C 1001.957031 106.964844 1059.574219 129.90625 1089.089844 144.171875 L 1094.335938 133.308594 C 1063.527344 118.417969 1004.566406 95.113281 892.914062 82.976562 Z M 891.617188 94.972656 " fill-opacity="1" fill-rule="nonzero"/></g><g clip-path="url(#8112bf570b)"><path fill="#c2bcbc" d="M -0.945312 194.851562 C -3.6875 196.746094 -4.375 200.5 -2.484375 203.242188 C -0.59375 205.988281 3.164062 206.675781 5.90625 204.785156 Z M 243.777344 74.644531 L 245.589844 80.398438 Z M 507.699219 43.914062 L 501.796875 45.175781 Z M 367.445312 169.085938 L 364.054688 164.097656 Z M 554.449219 150.050781 L 552.21875 144.445312 Z M 892.265625 100.285156 L 892.914062 94.285156 Z M 5.90625 204.785156 C 49.511719 174.710938 158.398438 107.871094 245.589844 80.398438 L 241.964844 68.894531 C 153.011719 96.921875 42.921875 164.601562 -0.945312 194.851562 Z M 245.589844 80.398438 C 300.417969 63.125 364.335938 47.4375 415.285156 40.101562 C 440.816406 36.425781 462.738281 34.902344 478.527344 36.191406 C 486.457031 36.839844 492.390625 38.167969 496.359375 39.996094 C 500.277344 41.800781 501.476562 43.667969 501.796875 45.175781 L 513.597656 42.652344 C 512.1875 36.066406 507.28125 31.742188 501.40625 29.035156 C 495.585938 26.355469 488.046875 24.863281 479.511719 24.167969 C 462.367188 22.765625 439.386719 24.441406 413.566406 28.160156 C 361.804688 35.613281 297.230469 51.480469 241.964844 68.894531 Z M 501.796875 45.175781 C 504.503906 57.816406 502.464844 67.679688 497 76.421875 C 491.355469 85.441406 481.816406 93.660156 468.757812 102.238281 C 455.710938 110.808594 439.832031 119.320312 421.851562 129.273438 C 403.980469 139.167969 384.273438 150.363281 364.054688 164.097656 L 370.832031 174.078125 C 390.578125 160.664062 409.894531 149.6875 427.695312 139.828125 C 445.394531 130.03125 461.84375 121.214844 475.378906 112.320312 C 488.902344 103.441406 500.191406 94.066406 507.226562 82.816406 C 514.4375 71.285156 516.921875 58.199219 513.597656 42.652344 Z M 364.054688 164.097656 C 337.839844 181.902344 311.070312 207.835938 299.410156 229.941406 C 293.730469 240.707031 290.574219 252.625 295.988281 262.234375 C 301.496094 272.011719 313.988281 276.164062 331.25 276.164062 L 331.25 264.097656 C 314.84375 264.097656 308.578125 260 306.5 256.308594 C 304.324219 252.449219 304.75 245.679688 310.082031 235.570312 C 320.449219 215.914062 345.441406 191.324219 370.832031 174.078125 Z M 331.25 276.164062 C 374.929688 276.164062 400.847656 257.382812 430.78125 233.464844 C 460.585938 209.648438 495.019531 180.171875 556.679688 155.65625 L 552.21875 144.445312 C 488.703125 169.699219 453.011719 200.261719 423.25 224.039062 C 393.609375 247.722656 370.515625 264.097656 331.25 264.097656 Z M 556.679688 155.65625 C 628.511719 127.097656 754.199219 91.34375 891.617188 106.28125 L 892.914062 94.285156 C 752.839844 79.0625 625.078125 115.480469 552.21875 144.445312 Z M 891.617188 106.28125 C 1001.957031 118.273438 1059.574219 141.21875 1089.089844 155.484375 L 1094.335938 144.621094 C 1063.527344 129.730469 1004.566406 106.421875 892.914062 94.285156 Z M 891.617188 106.28125 " fill-opacity="1" fill-rule="nonzero"/></g><g clip-path="url(#ce444e5583)"><path fill="#d5d5d5" d="M -0.945312 206.917969 C -3.6875 208.808594 -4.375 212.566406 -2.484375 215.308594 C -0.59375 218.050781 3.164062 218.742188 5.90625 216.851562 Z M 243.777344 86.710938 L 245.589844 92.464844 Z M 507.699219 55.980469 L 501.796875 57.242188 Z M 367.445312 181.152344 L 364.054688 176.160156 Z M 554.449219 162.117188 L 552.21875 156.511719 Z M 892.265625 112.347656 L 892.914062 106.351562 Z M 5.90625 216.851562 C 49.511719 186.777344 158.398438 119.9375 245.589844 92.464844 L 241.964844 80.957031 C 153.011719 108.984375 42.921875 176.667969 -0.945312 206.917969 Z M 245.589844 92.464844 C 300.417969 75.191406 364.335938 59.503906 415.285156 52.167969 C 440.816406 48.492188 462.738281 46.964844 478.527344 48.257812 C 486.457031 48.90625 492.390625 50.234375 496.359375 52.0625 C 500.277344 53.863281 501.476562 55.734375 501.796875 57.242188 L 513.597656 54.714844 C 512.1875 48.128906 507.28125 43.804688 501.40625 41.101562 C 495.585938 38.421875 488.046875 36.929688 479.511719 36.230469 C 462.367188 34.828125 439.386719 36.507812 413.566406 40.226562 C 361.804688 47.679688 297.230469 63.546875 241.964844 80.957031 Z M 501.796875 57.242188 C 504.503906 69.878906 502.464844 79.746094 497 88.484375 C 491.355469 97.507812 481.816406 105.722656 468.757812 114.300781 C 455.710938 122.871094 439.832031 131.386719 421.851562 141.339844 C 403.980469 151.234375 384.273438 162.429688 364.054688 176.160156 L 370.832031 186.140625 C 390.578125 172.730469 409.894531 161.75 427.695312 151.894531 C 445.394531 142.09375 461.84375 133.277344 475.378906 124.386719 C 488.902344 115.507812 500.191406 106.132812 507.226562 94.882812 C 514.4375 83.351562 516.921875 70.261719 513.597656 54.714844 Z M 364.054688 176.160156 C 337.839844 193.964844 311.070312 219.902344 299.410156 242.003906 C 293.730469 252.773438 290.574219 264.691406 295.988281 274.296875 C 301.496094 284.074219 313.988281 288.226562 331.25 288.226562 L 331.25 276.164062 C 314.84375 276.164062 308.578125 272.066406 306.5 268.375 C 304.324219 264.515625 304.75 257.742188 310.082031 247.632812 C 320.449219 227.976562 345.441406 203.390625 370.832031 186.140625 Z M 331.25 288.226562 C 374.929688 288.226562 400.847656 269.449219 430.78125 245.53125 C 460.585938 221.714844 495.019531 192.234375 556.679688 167.722656 L 552.21875 156.511719 C 488.703125 181.765625 453.011719 212.324219 423.25 236.105469 C 393.609375 259.789062 370.515625 276.164062 331.25 276.164062 Z M 556.679688 167.722656 C 628.511719 139.160156 754.199219 103.410156 891.617188 118.347656 L 892.914062 106.351562 C 752.839844 91.125 625.078125 127.542969 552.21875 156.511719 Z M 891.617188 118.347656 C 1001.957031 130.339844 1059.574219 153.28125 1089.089844 167.546875 L 1094.335938 156.6875 C 1063.527344 141.792969 1004.566406 118.488281 892.914062 106.351562 Z M 891.617188 118.347656 " fill-opacity="1" fill-rule="nonzero"/></g><g clip-path="url(#d046b67753)"><path fill="#f0ebeb" d="M -0.945312 216.722656 C -3.6875 218.613281 -4.375 222.367188 -2.484375 225.113281 C -0.59375 227.855469 3.164062 228.542969 5.90625 226.652344 Z M 243.777344 96.511719 L 245.589844 102.269531 Z M 507.699219 65.78125 L 501.796875 67.042969 Z M 367.445312 190.953125 L 364.054688 185.964844 Z M 554.449219 171.917969 L 552.21875 166.3125 Z M 892.265625 122.152344 L 892.914062 116.15625 Z M 5.90625 226.652344 C 49.511719 196.578125 158.398438 129.738281 245.589844 102.269531 L 241.964844 90.761719 C 153.011719 118.789062 42.921875 186.46875 -0.945312 216.722656 Z M 245.589844 102.269531 C 300.417969 84.992188 364.335938 69.304688 415.285156 61.96875 C 440.816406 58.292969 462.738281 56.769531 478.527344 58.058594 C 486.457031 58.707031 492.390625 60.035156 496.359375 61.863281 C 500.277344 63.667969 501.476562 65.535156 501.796875 67.042969 L 513.597656 64.519531 C 512.1875 57.933594 507.28125 53.609375 501.40625 50.902344 C 495.585938 48.226562 488.046875 46.730469 479.511719 46.035156 C 462.367188 44.632812 439.386719 46.308594 413.566406 50.027344 C 361.804688 57.480469 297.230469 73.347656 241.964844 90.761719 Z M 501.796875 67.042969 C 504.503906 79.683594 502.464844 89.546875 497 98.289062 C 491.355469 107.308594 481.816406 115.527344 468.757812 124.105469 C 455.710938 132.675781 439.832031 141.1875 421.851562 151.140625 C 403.980469 161.035156 384.273438 172.230469 364.054688 185.964844 L 370.832031 195.945312 C 390.578125 182.53125 409.894531 171.554688 427.695312 161.695312 C 445.394531 151.898438 461.84375 143.082031 475.378906 134.1875 C 488.902344 125.308594 500.191406 115.933594 507.226562 104.683594 C 514.4375 93.152344 516.921875 80.066406 513.597656 64.519531 Z M 364.054688 185.964844 C 337.839844 203.769531 311.070312 229.703125 299.410156 251.808594 C 293.730469 262.574219 290.574219 274.492188 295.988281 284.101562 C 301.496094 293.878906 313.988281 298.03125 331.25 298.03125 L 331.25 285.964844 C 314.84375 285.964844 308.578125 281.867188 306.5 278.179688 C 304.324219 274.316406 304.75 267.546875 310.082031 257.4375 C 320.449219 237.78125 345.441406 213.195312 370.832031 195.945312 Z M 331.25 298.03125 C 374.929688 298.03125 400.847656 279.25 430.78125 255.332031 C 460.585938 231.515625 495.019531 202.039062 556.679688 177.523438 L 552.21875 166.3125 C 488.703125 191.566406 453.011719 222.128906 423.25 245.910156 C 393.609375 269.589844 370.515625 285.964844 331.25 285.964844 Z M 556.679688 177.523438 C 628.511719 148.964844 754.199219 113.210938 891.617188 128.148438 L 892.914062 116.15625 C 752.839844 100.929688 625.078125 137.347656 552.21875 166.3125 Z M 891.617188 128.148438 C 1001.957031 140.140625 1059.574219 163.085938 1089.089844 177.351562 L 1094.335938 166.488281 C 1063.527344 151.597656 1004.566406 128.289062 892.914062 116.15625 Z M 891.617188 128.148438 " fill-opacity="1" fill-rule="nonzero"/></g></svg>