<svg xmlns="http://www.w3.org/2000/svg" xmlns:xlink="http://www.w3.org/1999/xlink" width="164" zoomAndPan="magnify" viewBox="0 0 123 70.499998" height="94" preserveAspectRatio="xMidYMid meet" version="1.0"><defs><clipPath id="9f10ddc0d4"><path d="M 24 42 L 35 42 L 35 68.515625 L 24 68.515625 Z M 24 42 " clip-rule="nonzero"/></clipPath><clipPath id="f91eaa3aa0"><path d="M 37 39 L 49 39 L 49 68.515625 L 37 68.515625 Z M 37 39 " clip-rule="nonzero"/></clipPath><clipPath id="b0df286e2d"><path d="M 51 29 L 63 29 L 63 68.515625 L 51 68.515625 Z M 51 29 " clip-rule="nonzero"/></clipPath><clipPath id="345aa51974"><path d="M 65 27 L 76 27 L 76 68.515625 L 65 68.515625 Z M 65 27 " clip-rule="nonzero"/></clipPath><clipPath id="04c47f25fc"><path d="M 78 15 L 90 15 L 90 68.515625 L 78 68.515625 Z M 78 15 " clip-rule="nonzero"/></clipPath><clipPath id="b759c8e70f"><path d="M 15.144531 0 L 100.785156 0 L 100.785156 53 L 15.144531 53 Z M 15.144531 0 " clip-rule="nonzero"/></clipPath><clipPath id="9e063783db"><path d="M 121.035156 68 L 122 68 L 122 69.476562 L 121.035156 69.476562 Z M 121.035156 68 " clip-rule="nonzero"/></clipPath><clipPath id="f77c62f828"><path d="M 121.035156 68 L 122.523438 68 L 122.523438 69.476562 L 121.035156 69.476562 Z M 121.035156 68 " clip-rule="nonzero"/></clipPath><clipPath id="bbee104522"><path d="M 122 68 L 122.523438 68 L 122.523438 69.476562 L 122 69.476562 Z M 122 68 " clip-rule="nonzero"/></clipPath><clipPath id="3a1d90d6fb"><path d="M 121.035156 67.984375 L 122.523438 67.984375 L 122.523438 69.476562 L 121.035156 69.476562 Z M 121.035156 67.984375 " clip-rule="nonzero"/></clipPath></defs><g clip-path="url(#9f10ddc0d4)"><path fill="#ffffff" d="M 31.941406 42.316406 C 31.867188 42.316406 31.765625 42.335938 31.671875 42.417969 L 24.273438 49.265625 L 24.273438 67.5 C 24.273438 68.109375 24.765625 68.601562 25.375 68.601562 L 33.640625 68.601562 C 34.25 68.601562 34.746094 68.109375 34.746094 67.5 L 34.746094 44.578125 L 32.195312 42.410156 C 32.105469 42.332031 32.003906 42.316406 31.941406 42.316406 " fill-opacity="1" fill-rule="nonzero"/></g><g clip-path="url(#f91eaa3aa0)"><path fill="#ffffff" d="M 39.136719 47.195312 C 38.710938 47.195312 38.296875 47.121094 37.90625 46.976562 L 37.90625 67.5 C 37.90625 68.109375 38.398438 68.601562 39.011719 68.601562 L 47.277344 68.601562 C 47.882812 68.601562 48.378906 68.109375 48.378906 67.5 L 48.378906 39.839844 L 41.570312 46.230469 C 40.910156 46.855469 40.042969 47.195312 39.136719 47.195312 " fill-opacity="1" fill-rule="nonzero"/></g><g clip-path="url(#b0df286e2d)"><path fill="#ffffff" d="M 59.070312 29.949219 C 58.996094 29.949219 58.890625 29.96875 58.796875 30.054688 L 51.539062 36.871094 L 51.539062 67.5 C 51.539062 68.109375 52.035156 68.601562 52.644531 68.601562 L 60.910156 68.601562 C 61.519531 68.601562 62.015625 68.109375 62.015625 67.5 L 62.015625 32.535156 L 59.335938 30.050781 C 59.242188 29.96875 59.140625 29.949219 59.070312 29.949219 " fill-opacity="1" fill-rule="nonzero"/></g><g clip-path="url(#345aa51974)"><path fill="#ffffff" d="M 65.628906 34.59375 C 65.476562 34.59375 65.324219 34.582031 65.175781 34.5625 L 65.175781 67.5 C 65.175781 68.109375 65.667969 68.601562 66.277344 68.601562 L 74.542969 68.601562 C 75.152344 68.601562 75.648438 68.109375 75.648438 67.5 L 75.648438 27.039062 L 67.960938 33.722656 C 67.316406 34.285156 66.484375 34.59375 65.628906 34.59375 " fill-opacity="1" fill-rule="nonzero"/></g><g clip-path="url(#04c47f25fc)"><path fill="#ffffff" d="M 78.808594 67.5 C 78.808594 68.109375 79.300781 68.601562 79.914062 68.601562 L 88.179688 68.601562 C 88.785156 68.601562 89.28125 68.109375 89.28125 67.5 L 89.28125 15.175781 L 78.808594 24.289062 L 78.808594 67.5 " fill-opacity="1" fill-rule="nonzero"/></g><g clip-path="url(#b759c8e70f)"><path fill="#ffffff" d="M 98.359375 0.15625 L 88.765625 1.253906 C 87.1875 1.4375 86.457031 3.304688 87.488281 4.507812 L 88.617188 5.820312 C 89.324219 6.644531 89.230469 7.882812 88.410156 8.597656 L 67.007812 27.21875 C 66.246094 27.882812 65.109375 27.863281 64.371094 27.175781 L 60.394531 23.488281 C 59.632812 22.78125 58.457031 22.789062 57.695312 23.496094 L 40.359375 39.78125 C 39.625 40.46875 38.492188 40.5 37.726562 39.847656 L 33.109375 35.925781 C 32.347656 35.277344 31.21875 35.300781 30.488281 35.980469 L 16.03125 49.351562 C 15.230469 50.09375 15.179688 51.34375 15.921875 52.140625 C 16.664062 52.945312 17.914062 52.992188 18.714844 52.253906 L 30.597656 41.261719 C 31.332031 40.582031 32.457031 40.558594 33.21875 41.207031 L 37.855469 45.144531 C 38.621094 45.796875 39.757812 45.769531 40.488281 45.078125 L 57.714844 28.902344 C 58.46875 28.191406 59.648438 28.1875 60.410156 28.894531 L 64.28125 32.488281 C 65.023438 33.175781 66.160156 33.191406 66.921875 32.53125 L 90.964844 11.613281 C 91.792969 10.894531 93.046875 10.988281 93.761719 11.820312 L 94.535156 12.722656 C 95.566406 13.925781 97.523438 13.484375 97.941406 11.957031 L 100.492188 2.640625 C 100.859375 1.292969 99.75 -0.00390625 98.359375 0.15625 " fill-opacity="1" fill-rule="nonzero"/></g><g clip-path="url(#9e063783db)"><path fill="#100f0d" d="M 121.328125 68.90625 C 121.324219 68.90625 121.324219 68.90625 121.320312 68.90625 L 121.195312 69.054688 L 121.195312 69.449219 C 121.195312 69.464844 121.203125 69.472656 121.210938 69.472656 L 121.355469 69.472656 C 121.367188 69.472656 121.375 69.464844 121.375 69.449219 L 121.375 68.953125 L 121.332031 68.90625 C 121.328125 68.90625 121.328125 68.90625 121.328125 68.90625 " fill-opacity="1" fill-rule="nonzero"/><path fill="#100f0d" d="M 121.453125 69.011719 C 121.445312 69.011719 121.4375 69.007812 121.429688 69.003906 L 121.429688 69.449219 C 121.429688 69.464844 121.4375 69.472656 121.449219 69.472656 L 121.59375 69.472656 C 121.605469 69.472656 121.613281 69.464844 121.613281 69.449219 L 121.613281 68.851562 L 121.492188 68.988281 C 121.484375 69.003906 121.46875 69.011719 121.453125 69.011719 " fill-opacity="1" fill-rule="nonzero"/><path fill="#100f0d" d="M 121.796875 68.636719 C 121.796875 68.636719 121.796875 68.636719 121.792969 68.640625 L 121.667969 68.785156 L 121.667969 69.449219 C 121.667969 69.464844 121.675781 69.472656 121.6875 69.472656 L 121.828125 69.472656 C 121.839844 69.472656 121.847656 69.464844 121.847656 69.449219 L 121.847656 68.691406 L 121.804688 68.640625 C 121.800781 68.636719 121.800781 68.636719 121.796875 68.636719 " fill-opacity="1" fill-rule="nonzero"/></g><g clip-path="url(#f77c62f828)"><path fill="#100f0d" d="M 121.910156 68.738281 C 121.910156 68.738281 121.90625 68.738281 121.902344 68.738281 L 121.902344 69.449219 C 121.902344 69.464844 121.914062 69.472656 121.921875 69.472656 L 122.066406 69.472656 C 122.078125 69.472656 122.085938 69.464844 122.085938 69.449219 L 122.085938 68.574219 L 121.953125 68.71875 C 121.941406 68.730469 121.925781 68.738281 121.910156 68.738281 " fill-opacity="1" fill-rule="nonzero"/></g><g clip-path="url(#bbee104522)"><path fill="#100f0d" d="M 122.140625 69.449219 C 122.140625 69.464844 122.148438 69.472656 122.160156 69.472656 L 122.304688 69.472656 C 122.316406 69.472656 122.324219 69.464844 122.324219 69.449219 L 122.324219 68.316406 L 122.140625 68.515625 L 122.140625 69.449219 " fill-opacity="1" fill-rule="nonzero"/></g><g clip-path="url(#3a1d90d6fb)"><path fill="#100f0d" d="M 122.480469 67.992188 L 122.3125 68.015625 C 122.285156 68.019531 122.273438 68.058594 122.292969 68.085938 L 122.3125 68.113281 C 122.324219 68.132812 122.320312 68.15625 122.308594 68.171875 L 121.9375 68.578125 C 121.921875 68.589844 121.902344 68.589844 121.890625 68.578125 L 121.820312 68.496094 C 121.808594 68.480469 121.789062 68.480469 121.773438 68.496094 L 121.472656 68.851562 C 121.460938 68.863281 121.441406 68.863281 121.425781 68.851562 L 121.347656 68.765625 C 121.332031 68.753906 121.3125 68.753906 121.300781 68.765625 L 121.050781 69.058594 C 121.035156 69.074219 121.035156 69.101562 121.046875 69.117188 C 121.0625 69.136719 121.082031 69.136719 121.097656 69.121094 L 121.304688 68.882812 C 121.316406 68.867188 121.335938 68.867188 121.347656 68.878906 L 121.429688 68.964844 C 121.441406 68.980469 121.460938 68.980469 121.476562 68.964844 L 121.773438 68.613281 C 121.789062 68.597656 121.808594 68.597656 121.820312 68.613281 L 121.886719 68.691406 C 121.902344 68.707031 121.921875 68.707031 121.933594 68.691406 L 122.351562 68.238281 C 122.367188 68.222656 122.386719 68.226562 122.402344 68.242188 L 122.414062 68.261719 C 122.433594 68.289062 122.464844 68.28125 122.472656 68.246094 L 122.519531 68.042969 C 122.523438 68.015625 122.503906 67.988281 122.480469 67.992188 " fill-opacity="1" fill-rule="nonzero"/></g></svg>