<svg width="1440" height="395" viewBox="0 0 1440 395" fill="none" xmlns="http://www.w3.org/2000/svg">
    <path d="M-4.54186 227.17C-8.17905 229.679 -9.0941 234.661 -6.5857 238.298C-4.0773 241.935 0.904681 242.85 4.54186 240.342L-4.54186 227.17ZM320 67.7561L322.404 75.3863L320 67.7561ZM670 27L662.177 28.6743L670 27ZM484 193L479.505 186.382L484 193ZM732 167.756L729.044 160.322L732 167.756ZM1180 101.756L1180.86 93.8029L1180 101.756ZM4.54186 240.342C62.3708 200.46 206.774 111.818 322.404 75.3863L317.596 60.1259C199.626 97.2946 53.6292 187.052 -4.54186 227.17L4.54186 240.342ZM322.404 75.3863C395.112 52.4783 479.881 31.6738 547.444 21.9452C581.303 17.0697 610.377 15.0469 631.315 16.7589C641.832 17.6188 649.7 19.38 654.965 21.8038C660.159 24.195 661.749 26.6748 662.177 28.6743L677.823 25.3257C675.953 16.591 669.446 10.8563 661.656 7.27018C653.938 3.71672 643.939 1.73771 632.619 0.812111C609.883 -1.0469 579.406 1.17786 545.164 6.10849C476.524 15.9921 390.888 37.0339 317.596 60.1259L322.404 75.3863ZM662.177 28.6743C665.765 45.4358 663.06 58.5176 655.811 70.1083C648.329 82.0725 635.678 92.9694 618.358 104.347C601.059 115.711 579.997 127.002 556.156 140.201C532.455 153.323 506.319 168.169 479.505 186.382L488.495 199.618C514.681 181.831 540.295 167.271 563.906 154.199C587.378 141.204 609.191 129.512 627.142 117.72C645.072 105.942 660.046 93.5114 669.377 78.5921C678.94 63.2995 682.235 45.9422 677.823 25.3257L662.177 28.6743ZM479.505 186.382C444.742 209.995 409.239 244.387 393.777 273.7C386.244 287.981 382.059 303.786 389.238 316.527C396.545 329.494 413.112 335 436 335V319C414.245 319 405.936 313.567 403.178 308.673C400.293 303.552 400.856 294.573 407.929 281.165C421.678 255.1 454.819 222.492 488.495 199.618L479.505 186.382ZM436 335C493.926 335 528.299 310.095 567.994 278.378C607.524 246.793 653.189 207.7 734.956 175.19L729.044 160.322C644.811 193.813 597.476 234.341 558.006 265.878C518.701 297.283 488.074 319 436 319V335ZM734.956 175.19C830.219 137.314 996.903 89.9014 1179.14 109.709L1180.86 93.8029C995.097 73.6108 825.665 121.907 729.044 160.322L734.956 175.19ZM1179.14 109.709C1325.47 125.615 1401.88 156.04 1441.02 174.959L1447.98 160.553C1407.12 140.805 1328.93 109.897 1180.86 93.8029L1179.14 109.709Z" fill="#ea3d50"/>
    <path d="M-4.54186 227.17C-8.17905 229.679 -9.0941 234.661 -6.5857 238.298C-4.0773 241.935 0.904681 242.85 4.54186 240.342L-4.54186 227.17ZM320 67.7561L322.404 75.3863L320 67.7561ZM670 27L662.177 28.6743L670 27ZM484 193L479.505 186.382L484 193ZM732 167.756L729.044 160.322L732 167.756ZM1180 101.756L1180.86 93.8029L1180 101.756ZM4.54186 240.342C62.3708 200.46 206.774 111.818 322.404 75.3863L317.596 60.1259C199.626 97.2946 53.6292 187.052 -4.54186 227.17L4.54186 240.342ZM322.404 75.3863C395.112 52.4783 479.881 31.6738 547.444 21.9452C581.303 17.0697 610.377 15.0469 631.315 16.7589C641.832 17.6188 649.7 19.38 654.965 21.8038C660.159 24.195 661.749 26.6748 662.177 28.6743L677.823 25.3257C675.953 16.591 669.446 10.8563 661.656 7.27018C653.938 3.71672 643.939 1.73771 632.619 0.812111C609.883 -1.0469 579.406 1.17786 545.164 6.10849C476.524 15.9921 390.888 37.0339 317.596 60.1259L322.404 75.3863ZM662.177 28.6743C665.765 45.4358 663.06 58.5176 655.811 70.1083C648.329 82.0725 635.678 92.9694 618.358 104.347C601.059 115.711 579.997 127.002 556.156 140.201C532.455 153.323 506.319 168.169 479.505 186.382L488.495 199.618C514.681 181.831 540.295 167.271 563.906 154.199C587.378 141.204 609.191 129.512 627.142 117.72C645.072 105.942 660.046 93.5114 669.377 78.5921C678.94 63.2995 682.235 45.9422 677.823 25.3257L662.177 28.6743ZM479.505 186.382C444.742 209.995 409.239 244.387 393.777 273.7C386.244 287.981 382.059 303.786 389.238 316.527C396.545 329.494 413.112 335 436 335V319C414.245 319 405.936 313.567 403.178 308.673C400.293 303.552 400.856 294.573 407.929 281.165C421.678 255.1 454.819 222.492 488.495 199.618L479.505 186.382ZM436 335C493.926 335 528.299 310.095 567.994 278.378C607.524 246.793 653.189 207.7 734.956 175.19L729.044 160.322C644.811 193.813 597.476 234.341 558.006 265.878C518.701 297.283 488.074 319 436 319V335ZM734.956 175.19C830.219 137.314 996.903 89.9014 1179.14 109.709L1180.86 93.8029C995.097 73.6108 825.665 121.907 729.044 160.322L734.956 175.19ZM1179.14 109.709C1325.47 125.615 1401.88 156.04 1441.02 174.959L1447.98 160.553C1407.12 140.805 1328.93 109.897 1180.86 93.8029L1179.14 109.709Z" fill="#fc7383"/>
    <path d="M-4.54186 243.011C-8.17905 245.519 -9.0941 250.501 -6.5857 254.138C-4.0773 257.775 0.904681 258.691 4.54186 256.182L-4.54186 243.011ZM320 83.5964L322.404 91.2266L320 83.5964ZM670 42.8403L662.177 44.5146L670 42.8403ZM484 208.84L479.505 202.223L484 208.84ZM732 183.596L729.044 176.162L732 183.596ZM1180 117.596L1180.86 109.643L1180 117.596ZM4.54186 256.182C62.3708 216.3 206.774 127.658 322.404 91.2266L317.596 75.9662C199.626 113.135 53.6292 202.893 -4.54186 243.011L4.54186 256.182ZM322.404 91.2266C395.112 68.3186 479.881 47.5141 547.444 37.7855C581.303 32.91 610.377 30.8872 631.315 32.5992C641.832 33.4591 649.7 35.2203 654.965 37.6441C660.159 40.0353 661.749 42.5151 662.177 44.5146L677.823 41.166C675.953 32.4313 669.446 26.6966 661.656 23.1105C653.938 19.557 643.939 17.578 632.619 16.6524C609.883 14.7934 579.406 17.0182 545.164 21.9488C476.524 31.8324 390.888 52.8742 317.596 75.9662L322.404 91.2266ZM662.177 44.5146C665.765 61.2761 663.06 74.3579 655.811 85.9486C648.329 97.9128 635.678 108.81 618.358 120.187C601.059 131.551 579.997 142.842 556.156 156.041C532.455 169.163 506.319 184.01 479.505 202.223L488.495 215.458C514.681 197.671 540.295 183.112 563.906 170.039C587.378 157.044 609.191 145.352 627.142 133.56C645.072 121.783 660.046 109.352 669.377 94.4324C678.94 79.1398 682.235 61.7825 677.823 41.166L662.177 44.5146ZM479.505 202.223C444.742 225.835 409.239 260.228 393.777 289.541C386.244 303.821 382.059 319.626 389.238 332.367C396.545 345.334 413.112 350 436 350V334C414.245 334 405.936 328.568 403.178 323.674C400.293 318.553 400.856 309.574 407.929 296.166C421.678 270.1 454.819 237.493 488.495 214.62L479.505 202.223ZM436 350C493.926 350 528.299 325.095 567.994 293.378C607.524 261.793 653.189 222.7 734.956 190.19L729.044 176.162C644.811 209.652 597.476 250.18 558.006 281.717C518.701 313.122 488.074 334.84 436 334.84V350ZM734.956 190.19C830.219 152.314 996.903 104.901 1179.14 124.709L1180.86 108.802C995.097 88.6101 825.665 136.907 729.044 175.322L734.956 190.19ZM1179.14 124.709C1325.47 140.605 1401.88 171.03 1441.02 189.949L1447.98 175.544C1407.12 155.796 1328.93 124.888 1180.86 108.802L1179.14 124.709Z" fill="#ffaeb8"/>
    <path d="M-4.54186 258.013C-8.17905 260.519 -9.0941 265.501 -6.5857 269.138C-4.0773 272.775 0.904681 273.691 4.54186 271.182L-4.54186 258.013ZM320 100.596L322.404 108.226L320 100.596ZM670 58.8403L662.177 60.5146L670 58.8403ZM484 224.84L479.505 218.223L484 224.84ZM732 199.596L729.044 192.162L732 199.596ZM1180 133.596L1180.86 125.643L1180 133.596ZM4.54186 271.182C62.3708 231.3 206.774 142.658 322.404 106.226L317.596 90.9662C199.626 128.135 53.6292 217.893 -4.54186 258.013L4.54186 271.182ZM322.404 106.226C395.112 83.3186 479.881 62.5141 547.444 52.7855C581.303 47.91 610.377 45.8872 631.315 47.5992C641.832 48.4591 649.7 50.2203 654.965 52.6441C660.159 55.0353 661.749 57.5151 662.177 59.5146L677.823 56.166C675.953 47.4313 669.446 41.6966 661.656 38.1105C653.938 34.557 643.939 32.578 632.619 31.6524C609.883 29.7934 579.406 32.0182 545.164 36.9488C476.524 46.8324 390.888 67.8742 317.596 90.9662L322.404 106.226ZM662.177 60.5146C665.765 77.2761 663.06 90.3579 655.811 101.948C648.329 113.912 635.678 124.81 618.358 136.187C601.059 147.551 579.997 158.842 556.156 172.041C532.455 185.163 506.319 200.01 479.505 218.223L488.495 231.458C514.681 213.671 540.295 199.112 563.906 186.039C587.378 173.044 609.191 161.352 627.142 149.56C645.072 137.783 660.046 125.352 669.377 110.432C678.94 95.1398 682.235 77.7825 677.823 57.166L662.177 60.5146ZM479.505 218.223C444.742 241.835 409.239 276.228 393.777 305.541C386.244 319.821 382.059 335.626 389.238 348.367C396.545 361.334 413.112 366 436 366V350C414.245 350 405.936 344.568 403.178 339.674C400.293 334.553 400.856 325.574 407.929 312.166C421.678 286.1 454.819 253.493 488.495 230.62L479.505 218.223ZM436 366C493.926 366 528.299 341.095 567.994 309.378C607.524 277.793 653.189 238.7 734.956 206.19L729.044 192.162C644.811 225.652 597.476 266.18 558.006 297.717C518.701 329.122 488.074 350.84 436 350.84V366ZM734.956 206.19C830.219 168.314 996.903 120.901 1179.14 140.709L1180.86 124.802C995.097 104.610 825.665 152.907 729.044 191.322L734.956 206.19ZM1179.14 140.709C1325.47 156.605 1401.88 187.03 1441.02 205.949L1447.98 191.544C1407.12 171.796 1328.93 140.888 1180.86 124.802L1179.14 140.709Z" fill="#ffdadf"/>
</svg>
